<svg xmlns="http://www.w3.org/2000/svg" viewBox="0 0 1920 1080" preserveAspectRatio="xMidYMid slice">
  <defs>
    <radialGradient id="g1" cx="50%" cy="38%" r="62%">
      <stop offset="0" stop-color="#e50914" stop-opacity="0.55"/>
      <stop offset="0.42" stop-color="#3b0710" stop-opacity="0.62"/>
      <stop offset="1" stop-color="#020204"/>
    </radialGradient>
    <linearGradient id="g2" x1="0" x2="1" y1="0" y2="1">
      <stop offset="0" stop-color="#111827"/>
      <stop offset="0.48" stop-color="#050507"/>
      <stop offset="1" stop-color="#7f0006"/>
    </linearGradient>
    <filter id="blur"><feGaussianBlur stdDeviation="48"/></filter>
  </defs>
  <rect width="1920" height="1080" fill="url(#g2)"/>
  <rect width="1920" height="1080" fill="url(#g1)"/>
  <circle cx="340" cy="210" r="210" fill="#e50914" opacity="0.35" filter="url(#blur)"/>
  <circle cx="1560" cy="780" r="270" fill="#b20710" opacity="0.42" filter="url(#blur)"/>
  <circle cx="980" cy="540" r="330" fill="#ffffff" opacity="0.05" filter="url(#blur)"/>
  <g opacity="0.18" fill="none" stroke="#fff" stroke-width="4">
    <path d="M240 770 C520 570, 740 930, 1030 710 S1510 540, 1700 690"/>
    <path d="M160 450 C480 220, 790 530, 1100 340 S1510 170, 1780 360"/>
  </g>
  <g opacity="0.22" fill="#fff">
    <circle cx="260" cy="860" r="5"/><circle cx="405" cy="790" r="3"/><circle cx="620" cy="920" r="4"/>
    <circle cx="1320" cy="230" r="4"/><circle cx="1510" cy="310" r="3"/><circle cx="1690" cy="190" r="5"/>
  </g>
</svg>
